# xmcd
#
# Track frame offsets:
#	150
#	17752
#	37834
#	58899
#	84588
#	105019
#	125077
#	147031
#	164327
#	182924
#	203946
#	220110
#
# Disc length: 3237 seconds
#
# Revision: 0
# Processed by: cddbd v1.5.2PL0 Copyright (c) Steve Scherf et al.
# Submitted via: audiograbber 1.83.01
#
DISCID=a10ca30c
DTITLE=William Bell - New Lease On Life
DYEAR=2006
DGENRE=Soul/R&B
TTITLE0=New Lease On Life
TTITLE1=Playaz Only Love You (When They're Playing)
TTITLE2=Part Time Lover (Full Time Friend)
TTITLE3=My Body Don't Know
TTITLE4=Honey From The Bee
TTITLE5=You Got A Hold On Me
TTITLE6=Keep A Light In The Window
TTITLE7=Got An Island Feelin'
TTITLE8=Treat Her Right (Like A Lady)
TTITLE9=Up Close And Personal
TTITLE10=Save Us
TTITLE11=Every Sunday Morning
EXTD=
EXTT0=
EXTT1=
EXTT2=
EXTT3=
EXTT4=
EXTT5=
EXTT6=
EXTT7=
EXTT8=
EXTT9=
EXTT10=
EXTT11=
PLAYORDER=
